<?xml version="1.0" standalone="no"?>
<!DOCTYPE svg PUBLIC "-//W3C//DTD SVG 20010904//EN"
 "http://www.w3.org/TR/2001/REC-SVG-20010904/DTD/svg10.dtd">
<svg version="1.0" xmlns="http://www.w3.org/2000/svg"
 width="1056pt" height="720pt" viewBox="0 0 1056 720"
 preserveAspectRatio="xMidYMid meet">
<metadata>
Created by potrace 1.8, written by Peter Selinger 2001-2007
</metadata>
<g transform="translate(0,720) scale(0.029126,-0.029126)"
fill="#000000" stroke="none">
<path d="M17845 23842 c-16 -8 -41 -21 -55 -28 -14 -7 -3852 -2456 -8530
-5443 l-8505 -5432 0 -35 0 -35 8037 -4787 8037 -4787 1 -722 0 -723 -7070 0
-7070 0 0 -45 0 -45 7085 0 7085 0 0 25 c0 16 6 25 15 25 13 0 15 87 15 721 0
438 4 719 9 717 5 -1 64 -34 130 -73 l121 -70 0 -647 c0 -569 2 -648 15 -648
9 0 15 -9 15 -25 l0 -25 8358 2 8357 3 3 42 3 43 -8345 0 -8346 0 0 605 c0
333 3 605 6 605 12 0 444 -264 887 -542 236 -147 431 -268 434 -268 3 0 11 6
17 14 18 22 2949 1889 2974 1894 12 2 22 12 22 21 0 22 19 41 42 41 10 0 677
421 1483 936 1425 910 1467 935 1489 920 22 -14 24 -14 29 5 3 11 15 23 26 26
19 5 20 7 6 17 -13 9 218 160 1319 864 734 468 1342 852 1350 852 9 0 16 5 16
10 0 6 9 10 19 10 11 0 21 7 23 15 2 8 599 395 1328 860 982 627 1326 852
1330 868 6 23 48 48 118 68 23 7 42 16 42 21 0 4 5 8 11 8 5 0 614 385 1351
856 738 471 1350 859 1360 862 12 3 18 14 18 33 0 25 4 28 38 31 32 2 305 173
1479 923 l1441 920 -16 28 c-9 15 -22 25 -29 22 -8 -2 -667 -422 -1466 -932
-798 -510 -1459 -927 -1467 -927 -11 0 -2926 1680 -2948 1699 -4 4 2932 1878
2943 1878 6 0 680 -389 1499 -863 l1490 -863 18 23 c10 12 18 26 18 30 0 4
-656 387 -1457 851 -1197 693 -1466 844 -1500 847 -42 4 -43 5 -43 39 0 27 -3
34 -15 29 -16 -6 -2909 1663 -2936 1694 -9 11 -28 22 -43 26 -26 6 -2965 1702
-2996 1728 -8 7 -23 16 -32 19 -32 11 -2943 1699 -2954 1713 -6 8 -33 24 -60
35 -38 17 -2722 1563 -3056 1761 -37 22 -65 44 -62 49 3 5 -2 9 -10 9 -25 0
-44 11 -1396 793 -1231 713 -1467 848 -1473 846 -1 0 -15 -8 -32 -17z m1548
-935 l1218 -705 -68 -44 c-100 -65 -2856 -1824 -2868 -1831 -6 -3 -114 55
-240 128 l-230 133 -3 1201 -2 1201 -30 0 -30 0 0 -1181 c0 -649 -4 -1179 -8
-1177 -5 2 -63 35 -130 73 l-122 70 0 1108 0 1107 -30 0 -30 0 -2 -1088 -3
-1088 -942 545 c-518 300 -939 549 -935 552 4 4 666 428 1471 942 l1464 935
151 -88 c83 -48 699 -405 1369 -793z m2846 -1648 c848 -490 1541 -895 1541
-899 0 -4 -660 -429 -1466 -944 l-1467 -937 -1541 892 c-847 490 -1546 897
-1553 903 -10 8 335 233 1455 948 807 516 1472 936 1479 933 7 -2 705 -405
1552 -896z m-7329 611 c-6 -12 -9 -25 -5 -28 4 -4 435 -255 958 -558 l952
-551 0 -478 0 -478 -990 -632 c-544 -348 -992 -631 -995 -630 -3 2 -600 348
-1328 769 -728 421 -1327 766 -1331 766 -4 0 -13 -12 -20 -27 -10 -22 -10 -29
2 -38 8 -5 598 -347 1311 -760 713 -412 1296 -752 1296 -755 0 -5 -2681 -1721
-2699 -1728 -4 -1 -597 340 -1319 758 -723 418 -1317 760 -1321 760 -4 0 -13
-12 -20 -27 -10 -22 -10 -29 2 -38 8 -5 593 -345 1301 -754 707 -410 1285
-746 1283 -747 -1 -1 -602 -385 -1336 -854 -1189 -758 -1337 -850 -1357 -841
-13 5 -606 348 -1319 761 -713 412 -1300 750 -1304 750 -4 0 -13 -12 -20 -27
-10 -22 -10 -29 2 -38 8 -5 593 -345 1301 -755 1003 -580 1283 -747 1274 -756
-25 -23 -2921 -1867 -2932 -1867 -6 0 -618 352 -1359 782 -742 429 -1352 781
-1356 781 -12 0 -33 -52 -24 -61 4 -4 604 -352 1333 -774 729 -421 1328 -769
1331 -773 4 -4 -596 -392 -1332 -862 -907 -578 -1338 -858 -1334 -868 3 -7
-13 -2 -38 12 -23 14 -637 380 -1364 813 l-1322 788 27 17 c15 9 3184 2033
7042 4497 3858 2464 7016 4478 7018 4476 2 -2 -2 -13 -8 -25z m2108 -1255
l122 -70 0 -281 0 -281 -117 -74 c-64 -41 -122 -78 -130 -82 -11 -7 -13 69
-13 428 0 240 4 435 8 433 5 -1 64 -34 130 -73z m419 -242 c84 -49 153 -91
153 -95 0 -6 -374 -248 -385 -248 -3 0 -5 108 -5 241 l0 240 43 -25 c23 -14
111 -65 194 -113z m7904 -909 c1285 -744 1477 -858 1462 -869 -129 -89 -2913
-1858 -2924 -1859 -16 -1 -2958 1694 -2958 1704 0 4 2928 1878 2938 1879 2 1
669 -384 1482 -855z m-6076 -149 c834 -483 1514 -879 1513 -880 -23 -19 -2756
-1758 -2763 -1758 -5 0 -191 105 -413 233 l-402 233 2 1400 3 1401 230 147
230 147 42 -23 c24 -13 725 -418 1558 -900z m-2127 -1455 l-3 -679 -125 72
-125 72 -3 1206 -2 1205 127 81 128 81 3 -679 c1 -373 1 -985 0 -1359z m-318
670 c0 -638 -3 -1160 -6 -1160 -9 0 -1877 1081 -1892 1095 -11 9 178 134 935
618 521 333 951 606 956 607 4 0 7 -522 7 -1160z m11536 -811 c800 -463 1454
-845 1454 -849 0 -9 -2920 -1873 -2934 -1873 -23 0 -2926 1687 -2918 1695 21
21 2918 1867 2931 1868 7 0 668 -379 1467 -841z m-12523 136 l986 -570 0 -690
0 -690 -785 -500 c-431 -275 -790 -500 -797 -500 -14 0 -3107 1787 -3106 1795
0 7 2703 1730 2710 1727 3 -1 449 -258 992 -572z m6501 -316 c809 -469 1472
-853 1473 -854 3 -2 -2743 -1757 -2757 -1763 -8 -3 -2926 1682 -2948 1702 -9
9 290 205 1360 889 755 482 1379 877 1387 877 7 0 675 -383 1485 -851z m-5318
-370 l124 -71 0 -493 0 -492 -117 -75 c-65 -41 -124 -78 -130 -82 -10 -6 -13
125 -13 638 0 355 3 646 6 646 4 0 62 -32 130 -71z m612 -354 c172 -99 312
-183 312 -186 0 -6 -700 -456 -725 -465 -13 -5 -15 50 -15 446 l0 451 58 -33
c32 -18 199 -114 370 -213z m13722 -829 c795 -461 1449 -841 1453 -845 9 -9
-2910 -1875 -2933 -1875 -16 0 -2919 1675 -2919 1684 -1 10 2934 1879 2944
1876 6 -2 660 -380 1455 -840z m-17758 -217 c838 -484 1535 -889 1550 -898
l28 -17 -1335 -853 c-735 -469 -1342 -851 -1349 -849 -18 4 -3105 1792 -3101
1796 15 16 2663 1701 2672 1702 7 0 698 -396 1535 -881z m11763 21 l1455 -843
-27 -17 c-16 -9 -635 -405 -1378 -880 -742 -474 -1354 -863 -1360 -863 -13 0
-2925 1685 -2925 1692 1 14 2747 1759 2762 1756 9 -1 672 -382 1473 -845z
m-5832 -72 c791 -458 1439 -837 1440 -842 2 -9 -2600 -1678 -2670 -1713 l-32
-16 -524 303 -524 304 -6 335 c-4 185 -7 706 -7 1157 l0 822 407 260 408 260
35 -18 c19 -11 682 -394 1473 -852z m-2380 -820 c2 -604 0 -1098 -4 -1098 -7
0 -228 127 -246 142 -10 8 -13 213 -13 963 0 811 2 954 14 964 8 7 65 45 128
85 83 53 114 68 115 57 1 -9 4 -510 6 -1113z m-323 3 l0 -920 -133 77 c-73 42
-412 239 -754 437 -351 203 -618 364 -613 369 12 12 1484 954 1493 955 4 1 7
-413 7 -918z m11548 -856 c1106 -641 1429 -832 1420 -841 -7 -6 -209 -136
-448 -288 -239 -152 -556 -356 -705 -452 -148 -96 -281 -180 -295 -187 -14 -8
-312 -197 -663 -421 l-638 -408 -153 88 c-1533 885 -2765 1601 -2763 1607 1 4
621 403 1377 886 l1375 879 30 -17 c17 -9 675 -390 1463 -846z m-17494 -45
c850 -492 1546 -897 1545 -900 0 -3 -662 -427 -1470 -942 l-1470 -938 -1538
890 c-845 490 -1545 896 -1554 902 -14 11 186 142 1451 950 807 516 1472 937
1479 935 7 -1 707 -405 1557 -897z m11646 -17 c797 -461 1448 -841 1447 -845
-2 -6 -2580 -1657 -2677 -1715 -25 -14 -61 6 -1480 827 -800 463 -1459 845
-1463 849 -12 12 2684 1732 2706 1727 9 -2 670 -381 1467 -843z m-6488 374
l783 -454 6 -834 c6 -761 5 -835 -10 -850 -9 -9 -302 -199 -653 -422 l-636
-406 -1481 857 c-873 506 -1475 860 -1468 864 7 4 606 387 1332 852 726 464
1325 845 1332 845 6 1 364 -203 795 -452z m993 -575 l120 -70 0 -642 0 -642
-124 -80 c-68 -43 -126 -76 -129 -73 -4 3 -8 362 -10 797 -4 668 -2 790 9 786
8 -3 68 -38 134 -76z m676 -392 c266 -154 485 -283 487 -288 1 -4 -206 -140
-459 -302 -254 -162 -475 -303 -490 -313 l-29 -19 0 601 c0 331 2 601 4 601 2
0 221 -126 487 -280z m13650 -1072 c1337 -773 1470 -853 1453 -865 -11 -8
-632 -405 -1381 -884 l-1363 -870 -1474 853 c-1111 643 -1472 856 -1463 864
11 11 1078 693 1122 718 11 6 202 128 425 271 1049 672 1196 765 1203 765 4 0
669 -383 1478 -852z m-5838 -68 c801 -464 1454 -847 1450 -850 -5 -4 -613
-393 -1352 -865 -1150 -734 -1348 -856 -1367 -849 -12 5 -670 385 -1463 844
-1121 650 -1438 837 -1428 847 20 19 2691 1722 2697 1719 3 -2 661 -382 1463
-846z m-11551 -36 c805 -466 1469 -852 1475 -858 10 -9 -336 -234 -1443 -941
-801 -512 -1463 -934 -1473 -938 -12 -6 -392 209 -1486 842 -808 468 -1472
854 -1476 858 -6 7 2914 1880 2933 1882 4 1 665 -380 1470 -845z m5773 -1
c1234 -714 1461 -849 1447 -859 -135 -93 -2657 -1694 -2666 -1692 -7 2 -304
171 -659 377 l-647 374 0 987 0 986 528 337 c290 185 528 337 530 337 2 0 662
-381 1467 -847z m-11888 -129 c851 -492 1551 -899 1555 -902 8 -8 -2711 -1746
-2732 -1746 -8 0 -702 409 -1542 909 l-1527 910 27 17 c57 37 2667 1706 2669
1707 1 1 698 -402 1550 -895z m9303 -690 l0 -945 -57 32 c-32 18 -89 52 -128
74 l-70 42 -3 792 -2 792 122 79 c68 44 126 80 131 80 4 0 7 -426 7 -946z
m-320 -9 c0 -410 -3 -745 -6 -745 -14 0 -1223 706 -1221 713 3 12 1199 776
1215 776 9 1 12 -154 12 -744z m11683 -871 c804 -465 1465 -849 1469 -853 10
-9 -2680 -1726 -2702 -1725 -9 0 -677 382 -1484 849 l-1466 849 27 18 c562
363 2672 1707 2681 1707 7 1 671 -380 1475 -845z m-5775 -39 c1111 -643 1448
-843 1439 -852 -21 -20 -2651 -1696 -2662 -1696 -11 0 -2925 1686 -2921 1690
24 24 2666 1702 2677 1700 9 -1 669 -380 1467 -842z m-6543 445 c336 -194 616
-357 623 -362 9 -8 12 -220 12 -997 l0 -986 -661 -422 -661 -423 -1464 847
c-805 466 -1460 851 -1456 855 4 4 666 428 1471 942 l1465 935 30 -18 c17 -10
306 -177 641 -371z m-5180 -670 c754 -436 1383 -800 1398 -809 l28 -18 -1282
-819 c-706 -450 -1287 -821 -1293 -823 -6 -2 -57 -32 -112 -67 l-101 -64
-1454 866 c-800 476 -1455 867 -1457 869 -1 1 614 396 1368 878 l1372 876 81
-48 c45 -27 699 -405 1452 -841z m6133 -678 l-3 -796 -120 -78 c-66 -42 -123
-77 -127 -78 -5 0 -8 427 -8 949 l0 949 130 -75 130 -75 -2 -796z m715 383
c454 -263 584 -342 574 -351 -9 -9 -1143 -735 -1214 -778 -10 -6 -13 147 -13
749 l0 755 33 -17 c19 -10 298 -171 620 -358z m7885 -1223 c1152 -666 1460
-849 1450 -858 -14 -13 -2644 -1693 -2657 -1697 -8 -2 -2938 1691 -2945 1702
-8 12 2657 1710 2674 1705 8 -3 673 -386 1478 -852z m-5760 -7 c799 -462 1452
-843 1452 -846 0 -6 -2909 -1868 -2932 -1877 -4 -2 -298 164 -653 370 l-645
373 0 995 0 995 653 417 c358 230 657 416 663 415 6 -1 664 -380 1462 -842z
m-6016 -186 c799 -462 1456 -844 1460 -847 9 -10 -2793 -1797 -2817 -1796 -21
0 -2878 1698 -2883 1713 -3 9 94 72 148 98 14 6 608 385 1320 841 712 457
1300 830 1307 831 6 1 665 -377 1465 -840z m3178 -805 l0 -956 -32 20 c-18 11
-77 45 -131 76 l-97 57 2 801 3 802 120 77 c66 43 123 78 128 78 4 1 7 -429 7
-955z m-324 -761 c-4 -4 -1214 694 -1233 711 -9 8 145 111 610 408 l622 396 3
-755 c1 -416 0 -758 -2 -760z m6167 12 c807 -467 1467 -852 1467 -855 0 -5
-2864 -1838 -2927 -1874 -12 -6 -2953 1689 -2953 1702 1 8 2933 1881 2940
1878 3 -2 665 -384 1473 -851z m-6820 280 l657 -380 -3 -980 -2 -979 -535
-343 c-294 -188 -542 -343 -550 -343 -8 0 -57 -22 -108 -49 l-92 -48 -1423
847 c-782 466 -1422 850 -1422 854 0 8 2807 1805 2816 1803 3 -1 301 -173 662
-382z m975 -1348 l2 -784 -107 -68 c-60 -38 -118 -75 -130 -83 l-23 -14 0 941
0 940 128 -74 127 -74 3 -784z m681 389 c480 -278 600 -351 589 -361 -7 -6
-130 -86 -273 -177 -143 -91 -412 -263 -597 -381 l-338 -216 0 745 c0 410 4
744 8 742 5 -1 280 -160 611 -352z m2151 -1245 c806 -467 1465 -852 1465 -856
0 -8 -2904 -1865 -2917 -1865 -12 0 -441 270 -453 286 -10 12 -470 291 -727
440 l-137 79 -1 972 0 971 643 411 c353 226 647 411 652 411 6 -1 669 -382
1475 -849z m-2834 -1869 c-3 -2 -60 29 -128 70 l-123 74 -2 775 -3 774 128 81
127 80 3 -925 c1 -508 0 -926 -2 -929z m-316 917 c0 -443 -4 -729 -9 -727 -21
7 -1201 713 -1201 718 0 8 127 70 143 70 6 1 246 151 532 335 286 183 523 334
528 334 4 1 7 -328 7 -730z"/>
<path d="M18135 22438 c-3 -13 -52 -239 -111 -503 -58 -264 -109 -497 -114
-517 -7 -35 -6 -38 14 -38 20 0 28 31 135 518 63 284 116 527 119 540 3 17 0
22 -17 22 -13 0 -22 -8 -26 -22z"/>
<path d="M17490 22368 c-15 -63 -41 -160 -46 -180 -9 -29 13 -20 26 11 6 16
25 41 41 57 29 27 35 29 140 32 61 3 114 0 118 -4 6 -7 -140 -705 -184 -881
-5 -20 -1 -23 25 -23 16 0 30 3 30 8 0 4 47 225 105 490 58 266 105 494 105
507 l0 25 -175 0 -174 0 -11 -42z"/>
<path d="M18270 22368 c-15 -63 -41 -160 -46 -180 -9 -29 13 -20 26 11 6 16
25 41 41 57 29 27 35 29 140 32 61 3 114 0 118 -4 6 -7 -140 -705 -184 -881
-5 -20 -1 -23 25 -23 16 0 30 3 30 8 0 4 47 225 105 490 58 266 105 494 105
507 l0 25 -175 0 -174 0 -11 -42z"/>
<path d="M21091 20643 c-24 -103 -222 -1009 -224 -1023 -1 -9 6 -15 18 -15 17
0 30 51 137 530 64 292 118 536 118 543 0 6 -9 12 -19 12 -14 0 -22 -11 -30
-47z"/>
<path d="M21490 20643 c-31 -11 -66 -38 -112 -84 -123 -125 -191 -312 -191
-529 0 -184 41 -309 125 -386 31 -28 46 -34 82 -34 76 0 131 53 178 168 19 49
23 75 23 187 0 120 -2 134 -26 186 -55 116 -152 143 -236 66 -13 -11 -26 -18
-29 -14 -12 12 37 170 76 245 48 94 90 136 156 161 97 37 54 69 -46 34z m-52
-468 c100 -84 105 -447 7 -511 -52 -34 -109 14 -140 120 -19 63 -30 223 -21
300 7 52 11 60 48 87 50 36 68 36 106 4z"/>
<path d="M20433 20520 c-17 -65 -28 -122 -25 -125 3 -3 17 16 31 42 37 68 72
83 193 83 53 0 99 -3 101 -7 3 -5 -37 -201 -89 -436 -51 -235 -94 -438 -96
-450 -3 -23 26 -37 42 -20 11 10 220 969 220 1006 l0 27 -174 0 -174 0 -29
-120z"/>
<path d="M15691 20643 c-24 -103 -222 -1009 -224 -1023 -1 -9 6 -15 18 -15 17
0 30 51 137 530 64 292 118 536 118 543 0 6 -9 12 -19 12 -14 0 -22 -11 -30
-47z"/>
<path d="M14663 20598 c-76 -55 -108 -91 -65 -73 38 16 49 16 63 -1 12 -14 14
-86 14 -429 0 -445 0 -441 -53 -447 -15 -2 -27 -7 -27 -13 0 -6 49 -11 123
-13 104 -2 122 0 122 13 0 9 -9 15 -24 15 -57 0 -56 -12 -56 515 0 266 -3 486
-7 488 -5 3 -45 -22 -90 -55z"/>
<path d="M15132 20639 c-50 -25 -95 -94 -113 -174 -12 -56 -9 -116 5 -80 41
109 84 155 141 155 77 0 130 -91 129 -220 -2 -150 -65 -305 -224 -544 -54 -82
-88 -142 -82 -148 4 -4 93 -7 197 -6 l189 3 22 93 c22 95 17 126 -11 73 -8
-17 -24 -35 -34 -41 -11 -5 -74 -10 -140 -10 l-120 0 76 122 c186 299 240 469
199 622 -20 74 -71 141 -123 162 -44 19 -61 18 -111 -7z"/>
<path d="M15813 20520 c-17 -65 -28 -122 -25 -125 3 -3 17 16 31 42 37 68 72
83 193 83 53 0 99 -3 101 -7 3 -5 -37 -201 -89 -436 -51 -235 -94 -438 -96
-450 -3 -23 26 -37 42 -20 11 10 220 969 220 1006 l0 27 -174 0 -174 0 -29
-120z"/>
<path d="M12740 18936 c0 -2 -52 -237 -115 -522 -63 -286 -115 -527 -115 -537
0 -12 6 -17 17 -15 12 2 22 25 35 78 27 113 218 981 218 991 0 5 -9 9 -20 9
-11 0 -20 -2 -20 -4z"/>
<path d="M11697 18849 c-42 -33 -75 -65 -71 -71 4 -6 10 -6 17 1 17 17 54 13
63 -6 5 -10 10 -190 12 -399 4 -428 1 -461 -48 -471 -65 -12 -24 -23 90 -23
73 0 120 4 120 10 0 6 -9 10 -20 10 -11 0 -29 9 -40 20 -19 19 -20 33 -20 505
0 382 -3 485 -12 484 -7 0 -48 -27 -91 -60z"/>
<path d="M12197 18849 c-42 -33 -75 -65 -71 -71 4 -6 10 -6 17 1 17 17 54 13
63 -6 5 -10 10 -190 12 -399 4 -428 1 -461 -48 -471 -65 -12 -24 -23 90 -23
73 0 120 4 120 10 0 6 -9 10 -20 10 -11 0 -29 9 -40 20 -19 19 -20 33 -20 505
0 382 -3 485 -12 484 -7 0 -48 -27 -91 -60z"/>
<path d="M12857 18787 c-15 -57 -29 -111 -33 -120 -11 -30 13 -18 26 12 6 16
25 42 41 57 29 28 34 29 150 32 l119 4 -6 -29 c-3 -15 -47 -219 -98 -453 l-93
-425 25 -3 c13 -2 25 -2 27 0 7 7 215 978 215 1002 l0 26 -174 0 -174 0 -25
-103z"/>
<path d="M9806 17161 c-8 -13 -236 -1042 -236 -1064 0 -12 6 -17 17 -15 12 2
22 25 35 78 35 145 218 983 218 996 0 16 -26 19 -34 5z"/>
<path d="M8759 17075 c-41 -31 -75 -60 -77 -65 -5 -13 14 -13 37 0 13 6 24 5
37 -5 18 -13 19 -35 22 -412 2 -261 -1 -408 -7 -426 -7 -17 -23 -32 -41 -38
-57 -20 -30 -29 90 -29 122 0 148 9 86 30 -19 6 -37 18 -40 26 -3 9 -6 231 -6
495 0 391 -2 479 -13 479 -8 0 -47 -25 -88 -55z"/>
<path d="M9258 17114 c-64 -34 -126 -173 -149 -333 -15 -104 -6 -354 15 -431
29 -111 58 -172 100 -216 37 -39 48 -44 86 -44 38 0 48 5 90 48 51 51 80 115
108 237 23 104 22 375 -2 480 -23 101 -76 215 -117 249 -35 30 -88 34 -131 10z
m89 -39 c30 -21 60 -107 74 -211 13 -103 6 -500 -11 -578 -14 -70 -48 -136
-76 -148 -31 -14 -71 11 -91 59 -41 98 -59 334 -44 550 16 208 33 276 83 323
26 24 37 25 65 5z"/>
<path d="M9945 17111 c-12 -20 -61 -232 -54 -236 4 -3 12 8 18 23 33 78 65 92
201 92 109 0 110 0 105 -22 -32 -139 -185 -857 -185 -870 0 -13 8 -18 25 -18
14 0 25 3 25 8 0 4 49 232 109 507 60 275 106 505 104 512 -6 16 -338 19 -348
4z"/>
<path d="M6232 14913 c-140 -636 -129 -573 -105 -573 18 0 31 49 136 528 65
290 117 533 117 540 0 6 -8 12 -18 12 -16 0 -33 -64 -130 -507z"/>
<path d="M5800 15379 c-137 -55 -204 -373 -116 -548 53 -104 127 -129 213 -71
25 17 47 29 49 28 6 -7 -33 -142 -59 -205 -48 -118 -115 -194 -187 -213 -48
-13 -52 -30 -9 -30 63 0 112 23 169 80 138 139 209 353 197 595 -12 256 -125
416 -257 364z m91 -70 c50 -54 85 -228 73 -369 -8 -90 -19 -110 -73 -135 -37
-16 -44 -17 -68 -4 -107 57 -126 441 -25 519 35 28 59 25 93 -11z"/>
<path d="M6455 15254 c-15 -63 -25 -118 -22 -121 3 -3 14 12 25 34 37 72 50
78 183 82 65 2 119 1 119 -2 0 -3 -43 -203 -95 -444 -52 -241 -95 -444 -95
-450 0 -7 11 -13 25 -13 17 0 26 7 30 23 53 228 213 992 209 999 -3 4 -83 8
-178 8 l-173 0 -28 -116z"/>
<path d="M3287 13108 c-65 -293 -117 -536 -117 -540 0 -5 9 -8 19 -8 16 0 22
11 31 53 6 28 59 271 118 540 105 469 108 487 87 487 -20 0 -28 -33 -138 -532z"/>
<path d="M2840 13591 c-19 -10 -48 -40 -65 -66 -28 -46 -30 -54 -30 -154 0
-115 3 -123 72 -229 34 -50 34 -53 19 -75 -89 -121 -106 -163 -106 -261 0
-199 174 -313 296 -195 58 56 79 112 79 209 0 100 -24 161 -100 261 l-47 60
42 45 c90 98 114 216 66 321 -44 94 -141 130 -226 84z m122 -32 c31 -17 58
-86 58 -154 0 -77 -12 -118 -53 -184 l-34 -53 -47 63 c-26 34 -54 79 -62 98
-19 44 -21 138 -5 171 30 59 94 85 143 59z m-22 -576 c93 -126 117 -206 86
-287 -31 -80 -92 -110 -148 -73 -68 46 -96 173 -64 296 17 66 50 131 67 131 5
0 32 -30 59 -67z"/>
<path d="M3545 13590 c-9 -14 -56 -232 -52 -237 3 -3 15 13 26 35 37 73 58 82
187 82 63 0 114 -3 114 -7 0 -5 -43 -204 -95 -443 -52 -239 -95 -441 -95 -447
0 -7 11 -13 25 -13 17 0 26 7 30 23 39 166 215 993 213 999 -3 9 -348 17 -353
8z"/>
<path d="M24540 18936 c0 -2 -52 -237 -115 -522 -63 -286 -115 -527 -115 -537
0 -12 6 -17 17 -15 12 2 22 25 35 78 27 113 218 981 218 991 0 5 -9 9 -20 9
-11 0 -20 -2 -20 -4z"/>
<path d="M23497 18849 c-42 -33 -75 -65 -71 -71 4 -6 10 -6 17 1 17 17 54 13
63 -6 5 -10 10 -190 12 -399 4 -428 1 -461 -48 -471 -65 -12 -24 -23 90 -23
73 0 120 4 120 10 0 6 -9 10 -20 10 -11 0 -29 9 -40 20 -19 19 -20 33 -20 505
0 382 -3 485 -12 484 -7 0 -48 -27 -91 -60z"/>
<path d="M23972 18579 c-129 -282 -152 -339 -152 -380 l0 -48 138 -3 137 -3 3
-132 3 -133 39 0 39 0 3 133 3 132 40 1 40 0 3 52 3 52 -45 0 -46 0 0 330 0
330 -28 0 c-28 0 -33 -10 -180 -331z m124 -316 c-6 -15 -226 -19 -226 -5 0 6
120 272 216 477 9 21 19 -447 10 -472z"/>
<path d="M24777 18849 c-42 -33 -75 -65 -71 -71 4 -6 10 -6 17 1 17 17 54 13
63 -6 5 -10 10 -190 12 -399 4 -428 1 -461 -48 -471 -65 -12 -24 -23 90 -23
73 0 120 4 120 10 0 6 -9 10 -20 10 -11 0 -29 9 -40 20 -19 19 -20 33 -20 505
0 382 -3 485 -12 484 -7 0 -48 -27 -91 -60z"/>
<path d="M25277 18849 c-42 -33 -75 -65 -71 -71 4 -6 10 -6 17 1 17 17 54 13
63 -6 5 -10 10 -190 12 -399 4 -428 1 -461 -48 -471 -65 -12 -24 -23 90 -23
73 0 120 4 120 10 0 6 -9 10 -20 10 -11 0 -29 9 -40 20 -19 19 -20 33 -20 505
0 382 -3 485 -12 484 -7 0 -48 -27 -91 -60z"/>
<path d="M18140 18936 c0 -2 -52 -237 -115 -522 -63 -286 -115 -527 -115 -537
0 -12 6 -17 17 -15 12 2 22 25 35 78 27 113 218 981 218 991 0 5 -9 9 -20 9
-11 0 -20 -2 -20 -4z"/>
<path d="M17562 18889 c-35 -23 -73 -80 -96 -147 -16 -45 -5 -68 15 -30 55
107 150 124 199 35 28 -49 33 -147 11 -210 -17 -50 -65 -104 -108 -122 -37
-16 -36 -35 1 -35 24 0 92 -41 113 -69 43 -56 58 -215 28 -287 -39 -95 -104
-119 -174 -66 -52 41 -68 45 -91 22 -26 -26 -25 -53 4 -87 22 -26 30 -28 93
-27 108 1 166 40 221 149 69 137 47 355 -44 434 l-33 30 33 55 c48 80 63 167
41 241 -9 33 -29 71 -49 92 -42 47 -112 56 -164 22z"/>
<path d="M18342 18889 c-35 -23 -73 -80 -96 -147 -16 -45 -5 -68 15 -30 55
107 150 124 199 35 28 -49 33 -147 11 -210 -17 -50 -65 -104 -108 -122 -37
-16 -36 -35 1 -35 24 0 92 -41 113 -69 43 -56 58 -215 28 -287 -39 -95 -104
-119 -174 -66 -52 41 -68 45 -91 22 -26 -26 -25 -53 4 -87 22 -26 30 -28 93
-27 108 1 166 40 221 149 69 137 47 355 -44 434 l-33 30 33 55 c48 80 63 167
41 241 -9 33 -29 71 -49 92 -42 47 -112 56 -164 22z"/>
<path d="M27006 17161 c-8 -13 -236 -1042 -236 -1064 0 -12 6 -17 17 -15 12 2
22 25 35 78 35 145 218 983 218 996 0 16 -26 19 -34 5z"/>
<path d="M26365 17111 c-12 -20 -61 -232 -54 -236 4 -3 12 8 18 23 33 78 65
92 201 92 109 0 110 0 105 -22 -32 -139 -185 -857 -185 -870 0 -13 8 -18 25
-18 14 0 25 3 25 8 0 4 49 232 109 507 60 275 106 505 104 512 -6 16 -338 19
-348 4z"/>
<path d="M27180 16933 c-33 -103 -60 -193 -60 -200 0 -7 8 -13 19 -13 10 0 42
-7 70 -16 62 -21 121 -78 159 -154 24 -49 27 -66 27 -155 0 -83 -4 -107 -22
-140 -52 -97 -123 -118 -187 -56 -52 50 -108 30 -92 -33 12 -50 49 -76 106
-76 211 0 338 333 219 577 -35 72 -108 143 -174 169 -50 19 -52 25 -26 99 l18
50 100 3 100 3 16 53 c9 29 17 58 17 64 0 9 -34 12 -115 12 l-114 0 -61 -187z"/>
<path d="M15706 17161 c-8 -13 -236 -1042 -236 -1064 0 -12 6 -17 17 -15 12 2
22 25 35 78 35 145 218 983 218 996 0 16 -26 19 -34 5z"/>
<path d="M14659 17075 c-41 -31 -75 -60 -77 -65 -5 -13 14 -13 37 0 13 6 24 5
37 -5 18 -13 19 -35 22 -412 2 -261 -1 -408 -7 -426 -7 -17 -23 -32 -41 -38
-57 -20 -30 -29 90 -29 122 0 148 9 86 30 -19 6 -37 18 -40 26 -3 9 -6 231 -6
495 0 391 -2 479 -13 479 -8 0 -47 -25 -88 -55z"/>
<path d="M15159 17075 c-41 -31 -75 -60 -77 -65 -5 -13 14 -13 37 0 13 6 24 5
37 -5 18 -13 19 -35 22 -412 2 -261 -1 -408 -7 -426 -7 -17 -23 -32 -41 -38
-57 -20 -30 -29 90 -29 122 0 148 9 86 30 -19 6 -37 18 -40 26 -3 9 -6 231 -6
495 0 391 -2 479 -13 479 -8 0 -47 -25 -88 -55z"/>
<path d="M16059 17105 c-65 -34 -132 -114 -185 -220 -68 -139 -79 -192 -79
-385 1 -184 14 -238 77 -331 40 -59 74 -79 133 -79 44 0 52 4 95 48 107 108
138 339 66 498 -51 111 -149 134 -239 56 -9 -8 -19 -13 -22 -10 -3 2 4 40 15
84 43 169 134 302 225 326 25 7 45 18 45 25 0 22 -80 15 -131 -12z m-11 -458
c61 -56 91 -320 49 -429 -20 -52 -58 -88 -92 -88 -73 0 -135 195 -122 384 7
102 9 106 59 139 46 30 68 28 106 -6z"/>
<path d="M21606 17161 c-8 -13 -236 -1042 -236 -1064 0 -12 6 -17 17 -15 12 2
22 25 35 78 35 145 218 983 218 996 0 16 -26 19 -34 5z"/>
<path d="M20559 17075 c-41 -31 -75 -60 -77 -65 -5 -13 14 -13 37 0 13 6 24 5
37 -5 18 -13 19 -35 22 -412 2 -261 -1 -408 -7 -426 -7 -17 -23 -32 -41 -38
-57 -20 -30 -29 90 -29 122 0 148 9 86 30 -19 6 -37 18 -40 26 -3 9 -6 231 -6
495 0 391 -2 479 -13 479 -8 0 -47 -25 -88 -55z"/>
<path d="M20995 17087 c-33 -33 -48 -59 -65 -114 -12 -39 -20 -84 -17 -100 4
-27 4 -27 12 -5 33 99 94 158 154 148 74 -12 116 -92 116 -221 -1 -145 -66
-302 -221 -538 -46 -70 -84 -134 -84 -143 0 -12 27 -14 192 -12 l192 3 17 70
c10 39 21 80 24 93 4 15 1 22 -10 22 -8 0 -15 -5 -15 -10 0 -6 -11 -22 -25
-35 -23 -24 -30 -25 -150 -25 l-126 0 39 58 c263 392 319 652 172 804 -45 47
-48 48 -104 48 -56 0 -61 -2 -101 -43z"/>
<path d="M21839 17075 c-41 -31 -75 -60 -77 -65 -5 -13 14 -13 37 0 13 6 24 5
37 -5 18 -13 19 -35 22 -412 2 -261 -1 -408 -7 -426 -7 -17 -23 -32 -41 -38
-57 -20 -30 -29 90 -29 122 0 148 9 86 30 -19 6 -37 18 -40 26 -3 9 -6 231 -6
495 0 391 -2 479 -13 479 -8 0 -47 -25 -88 -55z"/>
<path d="M22339 17075 c-41 -31 -75 -60 -77 -65 -5 -13 14 -13 37 0 13 6 24 5
37 -5 18 -13 19 -35 22 -412 2 -261 -1 -408 -7 -426 -7 -17 -23 -32 -41 -38
-57 -20 -30 -29 90 -29 122 0 148 9 86 30 -19 6 -37 18 -40 26 -3 9 -6 231 -6
495 0 391 -2 479 -13 479 -8 0 -47 -25 -88 -55z"/>
<path d="M30332 14913 c-140 -636 -129 -573 -105 -573 18 0 31 49 136 528 65
290 117 533 117 540 0 6 -8 12 -18 12 -16 0 -33 -64 -130 -507z"/>
<path d="M29401 15330 c-45 -33 -79 -65 -76 -70 4 -7 13 -7 25 0 66 35 70 11
70 -439 0 -420 -2 -433 -53 -439 -16 -2 -27 -8 -25 -14 5 -14 231 -14 236 1 2
6 -6 11 -17 11 -12 0 -30 9 -41 20 -19 19 -20 33 -20 505 0 267 -4 485 -8 485
-5 0 -45 -27 -91 -60z"/>
<path d="M29872 15054 c-138 -302 -153 -340 -150 -382 l3 -47 138 -3 137 -3 0
-129 0 -130 40 0 40 0 0 129 0 130 43 3 42 3 3 53 3 52 -45 0 -46 0 0 330 0
330 -27 0 c-27 0 -34 -14 -181 -336z m128 -79 l0 -245 -115 0 c-63 0 -115 2
-115 4 0 2 41 93 91 202 50 110 100 218 110 242 10 23 21 42 24 42 3 0 5 -110
5 -245z"/>
<path d="M30680 15379 c-137 -55 -204 -373 -116 -548 53 -104 127 -129 213
-71 25 17 47 29 49 28 6 -7 -33 -142 -59 -205 -48 -118 -115 -194 -187 -213
-48 -13 -52 -30 -9 -30 63 0 112 23 169 80 138 139 209 353 197 595 -12 256
-125 416 -257 364z m91 -70 c50 -54 85 -228 73 -369 -8 -90 -19 -110 -73 -135
-37 -16 -44 -17 -68 -4 -107 57 -126 441 -25 519 35 28 59 25 93 -11z"/>
<path d="M12132 14913 c-140 -636 -129 -573 -105 -573 18 0 31 49 136 528 65
290 117 533 117 540 0 6 -8 12 -18 12 -16 0 -33 -64 -130 -507z"/>
<path d="M12465 15378 c-41 -22 -68 -55 -96 -113 -30 -62 -36 -95 -19 -95 6 0
10 7 10 15 0 24 75 95 101 96 41 2 53 -2 81 -28 71 -67 60 -238 -19 -314 -21
-20 -48 -42 -60 -48 -29 -15 -30 -31 -2 -31 52 0 122 -64 146 -134 9 -28 17
-80 17 -116 1 -167 -94 -249 -198 -170 -49 37 -83 39 -96 5 -6 -15 -6 -34 -1
-48 16 -42 39 -52 116 -52 62 1 79 5 114 28 94 62 136 160 136 317 0 118 -19
177 -77 237 l-30 31 38 78 c34 68 39 87 39 148 0 57 -5 80 -25 116 -42 75
-119 110 -175 78z"/>
<path d="M11695 15358 c-73 -223 -115 -364 -111 -375 3 -7 15 -13 27 -13 80 0
158 -57 210 -152 33 -60 34 -67 34 -168 0 -89 -3 -111 -22 -147 -49 -90 -116
-108 -186 -48 -46 39 -71 44 -87 16 -17 -32 -12 -59 18 -91 50 -56 144 -50
220 15 55 48 108 157 123 253 20 138 -21 283 -107 368 -43 43 -110 84 -139 84
-19 0 -18 22 4 85 l18 50 99 5 99 5 17 45 c31 82 33 80 -97 80 -84 0 -117 -3
-120 -12z"/>
<path d="M23932 14913 c-140 -636 -129 -573 -105 -573 18 0 31 49 136 528 65
290 117 533 117 540 0 6 -8 12 -18 12 -16 0 -33 -64 -130 -507z"/>
<path d="M23635 15367 c-126 -59 -242 -253 -275 -459 -16 -96 -8 -295 14 -363
20 -66 74 -153 109 -179 39 -29 115 -29 154 0 77 58 127 186 127 329 0 119
-23 193 -76 251 -36 39 -45 44 -85 44 -48 0 -75 -11 -110 -43 -13 -11 -25 -18
-28 -15 -10 10 36 165 70 234 48 99 103 159 165 179 58 19 68 45 18 45 -18 0
-56 -11 -83 -23z m-39 -452 c51 -35 90 -200 81 -336 -8 -127 -60 -210 -122
-195 -73 18 -126 213 -110 403 7 84 7 84 47 114 45 32 73 36 104 14z"/>
<path d="M24275 15358 c-73 -223 -115 -364 -111 -375 3 -7 15 -13 27 -13 80 0
158 -57 210 -152 33 -60 34 -67 34 -168 0 -89 -3 -111 -22 -147 -49 -90 -116
-108 -186 -48 -46 39 -71 44 -87 16 -17 -32 -12 -59 18 -91 50 -56 144 -50
220 15 55 48 108 157 123 253 20 138 -21 283 -107 368 -43 43 -110 84 -139 84
-19 0 -18 22 4 85 l18 50 99 5 99 5 17 45 c31 82 33 80 -97 80 -84 0 -117 -3
-120 -12z"/>
<path d="M18532 14913 c-140 -636 -129 -573 -105 -573 18 0 31 49 136 528 65
290 117 533 117 540 0 6 -8 12 -18 12 -16 0 -33 -64 -130 -507z"/>
<path d="M17601 15330 c-45 -33 -79 -65 -76 -70 4 -7 13 -7 25 0 66 35 70 11
70 -439 0 -420 -2 -433 -53 -439 -16 -2 -27 -8 -25 -14 5 -14 231 -14 236 1 2
6 -6 11 -17 11 -12 0 -30 9 -41 20 -19 19 -20 33 -20 505 0 267 -4 485 -8 485
-5 0 -45 -27 -91 -60z"/>
<path d="M18101 15330 c-45 -33 -79 -65 -76 -70 4 -7 13 -7 25 0 66 35 70 11
70 -439 0 -420 -2 -433 -53 -439 -16 -2 -27 -8 -25 -14 5 -14 231 -14 236 1 2
6 -6 11 -17 11 -12 0 -30 9 -41 20 -19 19 -20 33 -20 505 0 267 -4 485 -8 485
-5 0 -45 -27 -91 -60z"/>
<path d="M18881 15330 c-45 -33 -79 -65 -76 -70 4 -7 13 -7 25 0 66 35 70 11
70 -439 0 -420 -2 -433 -53 -439 -16 -2 -27 -8 -25 -14 5 -14 231 -14 236 1 2
6 -6 11 -17 11 -12 0 -30 9 -41 20 -19 19 -20 33 -20 505 0 267 -4 485 -8 485
-5 0 -45 -27 -91 -60z"/>
<path d="M19381 15330 c-45 -33 -79 -65 -76 -70 4 -7 13 -7 25 0 66 35 70 11
70 -439 0 -420 -2 -433 -53 -439 -16 -2 -27 -8 -25 -14 5 -14 231 -14 236 1 2
6 -6 11 -17 11 -12 0 -30 9 -41 20 -19 19 -20 33 -20 505 0 267 -4 485 -8 485
-5 0 -45 -27 -91 -60z"/>
<path d="M26339 13673 c-12 -3 -42 -126 -132 -536 -65 -293 -117 -535 -117
-539 0 -5 8 -8 19 -8 20 0 8 -49 169 683 49 219 86 399 83 401 -3 1 -13 1 -22
-1z"/>
<path d="M25290 13590 c-35 -28 -68 -50 -72 -50 -4 0 -8 -6 -8 -14 0 -11 9
-13 35 -9 31 5 36 3 45 -21 11 -29 14 -784 4 -823 -4 -14 -19 -26 -40 -33 -62
-21 -36 -30 86 -30 72 0 120 4 120 10 0 5 -11 12 -25 16 -56 14 -55 8 -55 526
0 376 -3 478 -12 478 -7 -1 -42 -23 -78 -50z"/>
<path d="M25760 13633 c-49 -19 -99 -100 -120 -193 -13 -61 -10 -113 5 -75 50
130 89 171 154 161 67 -10 110 -79 118 -190 11 -145 -60 -328 -221 -569 -47
-71 -86 -135 -86 -143 0 -12 31 -14 189 -14 121 0 192 4 196 10 12 19 46 173
40 179 -3 3 -17 -9 -31 -26 -14 -19 -40 -37 -62 -43 -50 -14 -222 -13 -222 1
0 6 13 29 28 52 52 76 157 261 189 332 44 96 63 176 63 260 0 92 -22 154 -74
212 -39 43 -46 46 -96 49 -30 2 -62 1 -70 -3z"/>
<path d="M26509 13591 c-75 -78 -93 -137 -94 -307 0 -137 1 -142 30 -199 17
-32 43 -67 58 -79 42 -31 103 -28 156 7 24 16 44 27 46 25 6 -6 -30 -137 -54
-195 -23 -59 -63 -126 -95 -161 -26 -29 -88 -62 -116 -62 -12 0 -20 -7 -20
-16 0 -14 8 -16 49 -11 128 15 261 176 321 387 27 95 37 287 20 387 -15 91
-66 199 -114 241 -31 27 -44 32 -88 32 -49 0 -54 -3 -99 -49z m125 -12 c40
-31 64 -87 82 -191 11 -66 14 -119 10 -181 -8 -106 -8 -106 -50 -135 -82 -56
-145 -1 -172 148 -29 157 -5 302 58 355 36 30 38 30 72 4z"/>
<path d="M27371 13424 c-133 -143 -157 -431 -54 -634 22 -43 45 -76 55 -78 16
-3 15 3 -7 46 -45 90 -65 283 -46 440 14 115 34 176 73 225 43 55 29 56 -21 1z"/>
<path d="M27906 13453 c-6 -21 -146 -604 -146 -609 0 -2 6 -4 13 -4 8 0 38
107 88 315 52 218 71 315 63 315 -7 0 -15 -8 -18 -17z"/>
<path d="M28270 13468 c0 -3 15 -29 34 -57 52 -76 70 -173 70 -356 -1 -159
-19 -261 -52 -299 -16 -17 -16 -18 3 -15 11 2 24 14 30 27 5 12 13 22 17 22
14 0 47 110 59 195 25 175 -32 368 -135 464 -14 14 -26 22 -26 19z"/>
<path d="M27550 13261 c-55 -111 -100 -212 -100 -226 0 -25 1 -25 90 -25 l90
0 0 -80 c0 -79 0 -80 25 -80 25 0 25 1 25 80 l0 80 30 0 c27 0 30 3 30 30 0
27 -3 30 -30 30 l-30 0 -2 192 c-2 139 -6 192 -15 195 -7 3 -52 -75 -113 -196z
m80 -46 l0 -145 -70 0 c-40 0 -70 4 -70 10 0 10 132 280 137 280 2 0 3 -65 3
-145z"/>
<path d="M28038 13445 c-14 -8 -35 -34 -47 -58 -29 -59 -26 -68 7 -28 51 62
120 35 129 -50 5 -54 -19 -105 -62 -134 l-31 -19 41 -21 c55 -27 77 -73 72
-147 -6 -95 -57 -131 -122 -88 -39 26 -52 25 -61 -2 -8 -28 26 -58 67 -58 96
0 169 90 169 209 0 52 -29 124 -56 139 -16 9 -15 13 9 63 15 29 27 66 27 81 0
46 -26 95 -59 112 -36 19 -48 19 -83 1z"/>
<path d="M8665 13697 c-7 -20 -235 -1054 -235 -1066 0 -6 8 -11 18 -11 15 0
22 15 35 73 20 87 214 968 219 992 3 20 -31 30 -37 12z"/>
<path d="M8093 13648 c-77 -55 -123 -180 -123 -333 0 -117 14 -173 59 -238 50
-74 113 -84 193 -31 21 13 40 24 42 24 9 0 -25 -128 -51 -190 -56 -137 -112
-202 -190 -223 -25 -6 -43 -17 -43 -25 0 -20 76 -9 129 17 89 46 197 207 241
361 28 96 38 286 20 389 -15 88 -68 198 -116 240 -45 40 -112 43 -161 9z m101
-39 c40 -31 64 -87 82 -191 11 -66 14 -119 10 -181 -8 -106 -8 -107 -49 -134
-107 -73 -179 36 -181 272 -1 127 16 188 65 230 37 30 39 30 73 4z"/>
<path d="M9024 13646 c-82 -38 -177 -165 -225 -302 -49 -140 -63 -331 -35
-465 13 -61 58 -162 88 -200 46 -56 126 -67 189 -24 77 50 140 240 125 375
-11 97 -37 161 -83 207 -34 35 -49 43 -78 43 -35 0 -108 -30 -120 -50 -15 -24
-22 -7 -14 33 43 194 148 355 245 373 19 3 34 12 34 20 0 22 -68 17 -126 -10z
m-9 -468 c42 -49 60 -128 60 -263 0 -130 -10 -170 -53 -217 -95 -103 -196 106
-176 362 7 93 22 121 78 145 38 16 61 9 91 -27z"/>
<path d="M9567 13421 c-79 -87 -117 -205 -117 -358 0 -151 39 -274 115 -361
48 -55 57 -47 16 15 -42 63 -60 127 -71 251 -18 201 15 386 83 459 11 13 18
25 15 28 -3 3 -21 -12 -41 -34z"/>
<path d="M10056 13303 c-21 -87 -53 -221 -72 -298 -37 -155 -39 -168 -22 -163
6 2 41 130 78 284 36 153 70 291 73 307 5 19 4 27 -6 27 -9 0 -26 -50 -51
-157z"/>
<path d="M10475 13409 c60 -87 70 -139 70 -349 0 -207 -12 -267 -66 -347 -34
-49 -23 -58 15 -12 75 89 116 216 116 359 0 147 -43 275 -122 365 -45 52 -53
42 -13 -16z"/>
<path d="M9722 13423 c-21 -18 -64 -94 -57 -102 3 -2 16 11 30 28 43 51 105
38 121 -25 14 -54 -2 -107 -44 -144 l-39 -35 37 -17 c48 -20 73 -65 74 -135 1
-93 -57 -137 -127 -95 -38 23 -57 19 -57 -13 0 -30 26 -45 78 -45 84 0 152 85
152 191 0 68 -12 104 -47 141 l-25 27 23 32 c34 48 37 124 7 169 -20 29 -31
36 -64 38 -28 2 -47 -3 -62 -15z"/>
<path d="M10198 13413 c-31 -32 -48 -73 -48 -111 0 -24 2 -23 19 14 12 27 29
45 50 54 29 12 35 11 59 -7 88 -65 55 -221 -88 -421 -33 -46 -60 -85 -60 -88
0 -2 56 -4 124 -4 l124 0 5 29 c3 16 9 42 12 57 l7 29 -21 -25 c-17 -22 -29
-25 -102 -29 -45 -2 -80 1 -78 5 2 5 31 49 63 99 106 161 134 255 102 340 -33
85 -115 114 -168 58z"/>
<path d="M21487 13108 c-65 -293 -117 -536 -117 -540 0 -5 9 -8 19 -8 16 0 22
11 31 53 6 28 59 271 118 540 105 469 108 487 87 487 -20 0 -28 -33 -138 -532z"/>
<path d="M20565 13555 c-82 -63 -90 -76 -41 -68 32 5 37 3 46 -21 6 -17 10
-178 10 -426 0 -433 1 -422 -56 -436 -56 -14 -16 -24 96 -24 73 0 120 4 120
10 0 6 -7 10 -15 10 -9 0 -27 11 -40 25 l-25 24 0 481 c0 378 -3 480 -12 479
-7 0 -44 -24 -83 -54z"/>
<path d="M21065 13555 c-82 -63 -90 -76 -41 -68 32 5 37 3 46 -21 6 -17 10
-178 10 -426 0 -433 1 -422 -56 -436 -56 -14 -16 -24 96 -24 73 0 120 4 120
10 0 6 -7 10 -15 10 -9 0 -27 11 -40 25 l-25 24 0 481 c0 378 -3 480 -12 479
-7 0 -44 -24 -83 -54z"/>
<path d="M21845 13555 c-82 -63 -90 -76 -41 -68 32 5 37 3 46 -21 6 -17 10
-178 10 -426 0 -433 1 -422 -56 -436 -56 -14 -16 -24 96 -24 73 0 120 4 120
10 0 6 -7 10 -15 10 -9 0 -27 11 -40 25 l-25 24 0 481 c0 378 -3 480 -12 479
-7 0 -44 -24 -83 -54z"/>
<path d="M22320 13574 c-47 -43 -82 -111 -112 -219 -19 -69 -21 -105 -21 -270
0 -202 12 -273 63 -388 112 -251 303 -126 351 229 16 122 6 336 -20 437 -56
215 -162 300 -261 211z m105 -20 c66 -26 105 -291 86 -594 -15 -237 -41 -322
-106 -345 -24 -8 -30 -6 -55 22 -47 52 -63 145 -68 395 -7 393 39 562 143 522z"/>
<path d="M15587 13108 c-65 -293 -117 -536 -117 -540 0 -5 9 -8 19 -8 16 0 22
11 31 53 6 28 59 271 118 540 105 469 108 487 87 487 -20 0 -28 -33 -138 -532z"/>
<path d="M14620 13588 c-43 -29 -84 -102 -100 -178 -13 -62 -10 -113 5 -75 49
126 79 160 146 160 70 0 119 -75 127 -191 9 -146 -61 -325 -222 -568 -47 -71
-86 -135 -86 -142 0 -11 37 -14 194 -14 l193 0 22 92 c12 50 19 93 16 96 -3 3
-20 -12 -39 -34 l-34 -39 -121 -4 c-88 -2 -121 0 -121 9 0 6 13 30 28 53 63
93 164 269 192 335 85 201 81 364 -13 468 -39 43 -47 47 -97 51 -46 4 -61 1
-90 -19z"/>
<path d="M15140 13574 c-47 -43 -82 -111 -112 -219 -19 -69 -21 -105 -21 -270
0 -202 12 -273 63 -388 112 -251 303 -126 351 229 16 122 6 336 -20 437 -56
215 -162 300 -261 211z m105 -20 c66 -26 105 -291 86 -594 -15 -237 -41 -322
-106 -345 -24 -8 -30 -6 -55 22 -47 52 -63 145 -68 395 -7 393 39 562 143 522z"/>
<path d="M15945 13555 c-82 -63 -90 -76 -41 -68 32 5 37 3 46 -21 6 -17 10
-178 10 -426 0 -433 1 -422 -56 -436 -56 -14 -16 -24 96 -24 73 0 120 4 120
10 0 6 -7 10 -15 10 -9 0 -27 11 -40 25 l-25 24 0 481 c0 378 -3 480 -12 479
-7 0 -44 -24 -83 -54z"/>
<path d="M16445 13555 c-82 -63 -90 -76 -41 -68 32 5 37 3 46 -21 6 -17 10
-178 10 -426 0 -433 1 -422 -56 -436 -56 -14 -16 -24 96 -24 73 0 120 4 120
10 0 6 -7 10 -15 10 -9 0 -27 11 -40 25 l-25 24 0 481 c0 378 -3 480 -12 479
-7 0 -44 -24 -83 -54z"/>
<path d="M29945 11888 c-6 -18 -235 -1057 -235 -1069 0 -18 31 -8 40 14 7 18
225 997 233 1047 3 18 -31 26 -38 8z"/>
<path d="M29373 11850 c-18 -10 -43 -36 -57 -57 -23 -35 -56 -114 -56 -134 0
-20 17 -7 35 27 27 50 61 74 105 74 31 0 44 -7 68 -35 80 -90 42 -283 -66
-343 -23 -13 -42 -27 -42 -32 0 -4 16 -11 35 -14 20 -4 52 -21 72 -39 90 -79
109 -255 40 -358 -45 -67 -100 -72 -169 -14 -40 34 -76 33 -84 -1 -33 -133
196 -141 293 -11 54 72 76 156 71 272 -4 111 -28 176 -80 220 -34 29 -34 36
-3 83 62 94 72 195 28 283 -47 91 -120 122 -190 79z"/>
<path d="M30154 11851 c-48 -29 -85 -85 -105 -159 -32 -112 -20 -158 15 -60
40 114 129 153 194 87 90 -92 80 -286 -24 -496 -25 -50 -85 -153 -135 -228
-49 -75 -89 -143 -89 -151 0 -12 31 -14 190 -14 188 0 191 0 200 23 17 43 42
168 35 175 -4 4 -10 0 -13 -8 -3 -8 -18 -27 -33 -42 -27 -27 -30 -28 -148 -28
-67 0 -121 2 -121 4 0 2 32 55 71 117 88 142 174 315 194 394 17 67 20 183 5
235 -17 60 -66 127 -109 150 -50 25 -87 25 -127 1z"/>
<path d="M24545 11888 c-6 -18 -235 -1057 -235 -1069 0 -18 31 -8 40 14 7 18
225 997 233 1047 3 18 -31 26 -38 8z"/>
<path d="M23510 11814 c-41 -31 -76 -62 -78 -70 -4 -17 10 -18 25 -3 16 16 50
2 57 -24 3 -12 6 -200 6 -417 0 -431 -1 -440 -56 -440 -15 0 -24 -6 -24 -15 0
-12 20 -15 120 -15 95 0 120 3 120 14 0 7 -14 16 -30 20 -20 4 -34 14 -40 31
-6 16 -10 214 -10 501 0 261 -3 474 -7 474 -5 -1 -42 -26 -83 -56z"/>
<path d="M24010 11814 c-41 -31 -76 -62 -78 -70 -4 -17 10 -18 25 -3 16 16 50
2 57 -24 3 -12 6 -200 6 -417 0 -431 -1 -440 -56 -440 -15 0 -24 -6 -24 -15 0
-12 20 -15 120 -15 95 0 120 3 120 14 0 7 -14 16 -30 20 -20 4 -34 14 -40 31
-6 16 -10 214 -10 501 0 261 -3 474 -7 474 -5 -1 -42 -26 -83 -56z"/>
<path d="M24767 11849 c-43 -23 -87 -86 -114 -163 -14 -39 -18 -82 -18 -181 0
-115 3 -136 24 -183 54 -119 152 -148 238 -69 13 11 25 18 28 15 12 -12 -29
-147 -70 -233 -51 -107 -97 -158 -165 -182 -86 -31 -55 -55 37 -28 82 24 165
110 227 237 70 143 81 195 80 388 0 144 -3 173 -22 224 -32 87 -79 154 -123
176 -48 25 -74 25 -122 -1z m103 -59 c54 -57 87 -215 76 -365 -5 -84 -8 -92
-36 -117 -93 -85 -166 -17 -190 177 -18 139 1 253 51 306 35 37 64 37 99 -1z"/>
<path d="M12745 11888 c-6 -18 -235 -1057 -235 -1069 0 -18 31 -8 40 14 7 18
225 997 233 1047 3 18 -31 26 -38 8z"/>
<path d="M11710 11814 c-41 -31 -76 -62 -78 -70 -4 -17 10 -18 25 -3 16 16 50
2 57 -24 3 -12 6 -200 6 -417 0 -431 -1 -440 -56 -440 -15 0 -24 -6 -24 -15 0
-12 20 -15 120 -15 95 0 120 3 120 14 0 7 -14 16 -30 20 -20 4 -34 14 -40 31
-6 16 -10 214 -10 501 0 261 -3 474 -7 474 -5 -1 -42 -26 -83 -56z"/>
<path d="M12200 11859 c-69 -28 -111 -103 -118 -211 -6 -94 12 -156 69 -239
21 -32 39 -61 39 -64 0 -3 -18 -30 -41 -60 -54 -72 -79 -140 -79 -219 0 -144
76 -246 184 -246 73 0 122 34 164 115 23 43 26 63 26 140 1 105 -20 160 -97
259 l-46 59 44 52 c63 73 85 126 85 205 0 151 -115 255 -230 209z m124 -69
c31 -38 40 -82 34 -170 -4 -55 -12 -81 -39 -126 -19 -32 -38 -59 -44 -60 -14
-4 -95 109 -111 154 -16 46 -18 136 -3 165 25 49 51 67 95 67 35 0 47 -5 68
-30z m-43 -552 c71 -102 91 -143 96 -207 8 -103 -54 -181 -132 -167 -84 16
-127 166 -90 311 16 60 53 135 67 135 4 0 30 -33 59 -72z"/>
<path d="M12990 11814 c-41 -31 -76 -62 -78 -70 -4 -17 10 -18 25 -3 16 16 50
2 57 -24 3 -12 6 -200 6 -417 0 -431 -1 -440 -56 -440 -15 0 -24 -6 -24 -15 0
-12 20 -15 120 -15 95 0 120 3 120 14 0 7 -14 16 -30 20 -20 4 -34 14 -40 31
-6 16 -10 214 -10 501 0 261 -3 474 -7 474 -5 -1 -42 -26 -83 -56z"/>
<path d="M13490 11814 c-41 -31 -76 -62 -78 -70 -4 -17 10 -18 25 -3 16 16 50
2 57 -24 3 -12 6 -200 6 -417 0 -431 -1 -440 -56 -440 -15 0 -24 -6 -24 -15 0
-12 20 -15 120 -15 95 0 120 3 120 14 0 7 -14 16 -30 20 -20 4 -34 14 -40 31
-6 16 -10 214 -10 501 0 261 -3 474 -7 474 -5 -1 -42 -26 -83 -56z"/>
<path d="M18145 11888 c-6 -18 -235 -1057 -235 -1069 0 -18 31 -8 40 14 7 18
225 997 233 1047 3 18 -31 26 -38 8z"/>
<path d="M17600 11845 c0 -3 -27 -88 -60 -191 -33 -102 -60 -189 -60 -194 0
-4 21 -10 48 -14 65 -9 120 -42 164 -101 98 -129 97 -325 -1 -419 -43 -42 -87
-39 -142 7 -49 42 -67 43 -88 6 -12 -22 -12 -29 3 -61 19 -40 51 -58 104 -58
158 1 287 225 255 445 -20 139 -105 260 -209 300 -27 10 -51 19 -53 21 -1 1 7
32 19 68 l22 66 98 0 98 0 16 47 c29 85 32 83 -99 83 -63 0 -115 -2 -115 -5z"/>
<path d="M18380 11845 c0 -3 -27 -88 -60 -191 -33 -102 -60 -189 -60 -194 0
-4 21 -10 48 -14 65 -9 120 -42 164 -101 98 -129 97 -325 -1 -419 -43 -42 -87
-39 -142 7 -49 42 -67 43 -88 6 -12 -22 -12 -29 3 -61 19 -40 51 -58 104 -58
158 1 287 225 255 445 -20 139 -105 260 -209 300 -27 10 -51 19 -53 21 -1 1 7
32 19 68 l22 66 98 0 98 0 16 47 c29 85 32 83 -99 83 -63 0 -115 -2 -115 -5z"/>
<path d="M6345 11888 c-6 -18 -235 -1057 -235 -1069 0 -18 31 -8 40 14 7 18
225 997 233 1047 3 18 -31 26 -38 8z"/>
<path d="M5900 11808 c-15 -35 -85 -186 -154 -337 -106 -231 -126 -282 -126
-323 l0 -48 140 0 139 0 3 -132 3 -133 35 0 35 0 3 133 3 132 44 0 45 0 0 55
0 55 -45 0 -45 0 0 330 0 330 -26 0 c-21 0 -30 -9 -54 -62z m0 -353 l0 -245
-115 0 c-63 0 -115 1 -115 3 0 2 13 30 28 63 16 32 66 141 112 242 45 100 84
182 86 182 2 0 4 -110 4 -245z"/>
<path d="M6553 11850 c-18 -10 -43 -36 -57 -57 -23 -35 -56 -114 -56 -134 0
-20 17 -7 35 27 27 50 61 74 105 74 31 0 44 -7 68 -35 80 -90 42 -283 -66
-343 -23 -13 -42 -27 -42 -32 0 -4 16 -11 35 -14 20 -4 52 -21 72 -39 90 -79
109 -255 40 -358 -45 -67 -100 -72 -169 -14 -40 34 -76 33 -84 -1 -33 -133
196 -141 293 -11 54 72 76 156 71 272 -4 111 -28 176 -80 220 -34 29 -34 36
-3 83 62 94 72 195 28 283 -47 91 -120 122 -190 79z"/>
<path d="M27505 10108 c-5 -13 -235 -1056 -235 -1064 0 -13 39 -1 44 14 2 9
55 244 116 522 61 278 113 513 116 523 4 12 0 17 -16 17 -11 0 -23 -6 -25 -12z"/>
<path d="M26467 10034 c-42 -30 -77 -63 -77 -72 0 -12 3 -13 12 -4 18 18 56
14 68 -7 6 -13 10 -165 10 -425 0 -393 -1 -407 -20 -426 -11 -11 -29 -20 -40
-20 -11 0 -20 -4 -20 -10 0 -6 47 -10 120 -10 115 0 154 11 90 25 -23 5 -32
14 -40 43 -6 23 -10 216 -10 500 0 254 -4 462 -8 462 -4 0 -42 -25 -85 -56z"/>
<path d="M26967 10034 c-42 -30 -77 -63 -77 -72 0 -12 3 -13 12 -4 18 18 56
14 68 -7 6 -13 10 -165 10 -425 0 -393 -1 -407 -20 -426 -11 -11 -29 -20 -40
-20 -11 0 -20 -4 -20 -10 0 -6 47 -10 120 -10 115 0 154 11 90 25 -23 5 -32
14 -40 43 -6 23 -10 216 -10 500 0 254 -4 462 -8 462 -4 0 -42 -25 -85 -56z"/>
<path d="M27719 10067 c-66 -44 -99 -117 -99 -218 0 -75 22 -142 70 -214 22
-33 40 -63 40 -67 0 -4 -18 -31 -40 -60 -96 -126 -107 -279 -29 -392 33 -49
75 -70 135 -70 72 0 123 35 161 111 24 50 28 70 28 143 0 100 -23 161 -100
261 l-47 60 47 50 c63 67 85 118 85 199 0 128 -72 220 -171 220 -31 0 -57 -7
-80 -23z m120 -30 c40 -20 61 -73 61 -152 0 -86 -10 -123 -51 -187 l-32 -50
-34 39 c-56 65 -93 149 -93 211 0 111 73 179 149 139z m-7 -593 c89 -123 108
-206 68 -290 -24 -48 -76 -80 -113 -68 -108 32 -140 240 -60 397 13 27 29 47
36 44 7 -2 38 -39 69 -83z"/>
<path d="M21605 10108 c-5 -13 -235 -1056 -235 -1064 0 -13 39 -1 44 14 2 9
55 244 116 522 61 278 113 513 116 523 4 12 0 17 -16 17 -11 0 -23 -6 -25 -12z"/>
<path d="M20567 10034 c-42 -30 -77 -63 -77 -72 0 -12 3 -13 12 -4 18 18 56
14 68 -7 6 -13 10 -165 10 -425 0 -393 -1 -407 -20 -426 -11 -11 -29 -20 -40
-20 -11 0 -20 -4 -20 -10 0 -6 47 -10 120 -10 115 0 154 11 90 25 -23 5 -32
14 -40 43 -6 23 -10 216 -10 500 0 254 -4 462 -8 462 -4 0 -42 -25 -85 -56z"/>
<path d="M21045 10059 c-186 -163 -190 -808 -7 -983 39 -36 98 -41 139 -10
107 79 161 282 150 564 -7 169 -24 247 -74 342 -61 117 -138 149 -208 87z
m119 -44 c13 -14 31 -52 40 -85 49 -174 41 -643 -13 -765 -54 -121 -129 -90
-167 68 -36 151 -29 569 12 706 28 96 81 127 128 76z"/>
<path d="M21823 10071 c-39 -24 -77 -79 -105 -152 -26 -69 -36 -227 -18 -307
23 -108 86 -182 153 -182 29 0 101 32 112 50 14 23 26 9 20 -22 -38 -190 -138
-354 -233 -381 -59 -18 -67 -37 -15 -37 128 1 278 176 339 395 21 76 30 308
15 390 -13 74 -69 190 -110 229 -40 39 -111 46 -158 17z m118 -71 c45 -55 63
-144 64 -301 0 -154 -3 -162 -75 -194 -37 -17 -41 -17 -65 -1 -13 9 -31 26
-39 39 -44 66 -65 291 -37 390 8 26 27 62 42 78 37 40 72 36 110 -11z"/>
<path d="M15205 10108 c-5 -13 -235 -1056 -235 -1064 0 -13 39 -1 44 14 2 9
55 244 116 522 61 278 113 513 116 523 4 12 0 17 -16 17 -11 0 -23 -6 -25 -12z"/>
<path d="M14643 10071 c-39 -24 -77 -79 -105 -152 -26 -69 -36 -227 -18 -307
23 -108 86 -182 153 -182 29 0 101 32 112 50 14 23 26 9 20 -22 -38 -190 -138
-354 -233 -381 -59 -18 -67 -37 -15 -37 128 1 278 176 339 395 21 76 30 308
15 390 -13 74 -69 190 -110 229 -40 39 -111 46 -158 17z m118 -71 c45 -55 63
-144 64 -301 0 -154 -3 -162 -75 -194 -37 -17 -41 -17 -65 -1 -13 9 -31 26
-39 39 -44 66 -65 291 -37 390 8 26 27 62 42 78 37 40 72 36 110 -11z"/>
<path d="M15440 10066 c0 -2 -27 -88 -60 -191 -33 -103 -60 -189 -60 -191 0
-2 5 -4 11 -4 6 0 36 -7 66 -16 171 -50 262 -286 176 -457 -26 -52 -72 -87
-115 -87 -18 0 -42 13 -67 35 -21 19 -48 35 -59 35 -28 0 -44 -47 -27 -86 19
-45 41 -58 99 -58 211 1 337 332 221 577 -38 80 -152 177 -209 177 -21 0 -20
12 7 85 l22 60 95 3 c52 2 98 6 101 10 4 4 14 31 23 60 l15 52 -120 0 c-65 0
-119 -2 -119 -4z"/>
<path d="M9805 10108 c-5 -13 -235 -1056 -235 -1064 0 -13 39 -1 44 14 2 9 55
244 116 522 61 278 113 513 116 523 4 12 0 17 -16 17 -11 0 -23 -6 -25 -12z"/>
<path d="M8767 10034 c-42 -30 -77 -63 -77 -72 0 -12 3 -13 12 -4 18 18 56 14
68 -7 6 -13 10 -165 10 -425 0 -393 -1 -407 -20 -426 -11 -11 -29 -20 -40 -20
-11 0 -20 -4 -20 -10 0 -6 47 -10 120 -10 115 0 154 11 90 25 -23 5 -32 14
-40 43 -6 23 -10 216 -10 500 0 254 -4 462 -8 462 -4 0 -42 -25 -85 -56z"/>
<path d="M9389 10065 c-195 -102 -324 -474 -264 -760 19 -92 77 -208 117 -236
42 -30 117 -31 156 -3 39 30 90 108 110 173 25 81 24 248 -3 319 -51 137 -159
179 -249 95 l-29 -27 7 45 c18 119 92 276 158 337 14 13 47 31 74 41 27 11 49
23 49 27 0 20 -81 13 -126 -11z m-16 -465 c47 -55 62 -121 62 -270 0 -121 -2
-139 -23 -177 -12 -24 -34 -50 -48 -60 -24 -15 -29 -15 -52 -2 -68 38 -105
158 -104 336 0 61 3 121 7 133 9 27 73 70 106 70 18 0 36 -10 52 -30z"/>
<path d="M10047 10034 c-42 -30 -77 -63 -77 -72 0 -12 3 -13 12 -4 18 18 56
14 68 -7 6 -13 10 -165 10 -425 0 -393 -1 -407 -20 -426 -11 -11 -29 -20 -40
-20 -11 0 -20 -4 -20 -10 0 -6 47 -10 120 -10 115 0 154 11 90 25 -23 5 -32
14 -40 43 -6 23 -10 216 -10 500 0 254 -4 462 -8 462 -4 0 -42 -25 -85 -56z"/>
<path d="M10547 10034 c-42 -30 -77 -63 -77 -72 0 -12 3 -13 12 -4 18 18 56
14 68 -7 6 -13 10 -165 10 -425 0 -393 -1 -407 -20 -426 -11 -11 -29 -20 -40
-20 -11 0 -20 -4 -20 -10 0 -6 47 -10 120 -10 115 0 154 11 90 25 -23 5 -32
14 -40 43 -6 23 -10 216 -10 500 0 254 -4 462 -8 462 -4 0 -42 -25 -85 -56z"/>
<path d="M24046 8363 c-6 -20 -236 -1061 -236 -1068 0 -3 9 -5 20 -5 12 0 22
8 25 23 3 12 50 227 105 477 55 250 107 482 114 514 8 33 13 64 10 68 -9 14
-33 8 -38 -9z"/>
<path d="M24392 8308 c-11 -24 -81 -177 -156 -341 -110 -241 -136 -307 -136
-343 l0 -44 140 0 139 0 3 -132 3 -133 38 -3 37 -3 0 135 0 136 45 0 45 0 0
55 0 55 -45 0 -45 0 -2 328 -3 327 -22 3 c-17 3 -26 -6 -41 -40z m-12 -373 l0
-245 -114 0 -114 0 111 245 c62 135 113 245 115 245 1 0 2 -110 2 -245z"/>
<path d="M23505 8319 c-6 -8 -125 -377 -125 -384 0 -1 21 -5 47 -9 138 -19
238 -156 238 -326 0 -62 -5 -86 -28 -132 -45 -92 -117 -119 -174 -66 -64 59
-103 55 -103 -11 0 -111 154 -126 254 -24 133 135 154 392 46 556 -36 53 -107
108 -162 126 -21 7 -38 16 -38 20 0 4 9 35 21 69 l21 61 101 3 101 3 13 44 c7
24 15 52 18 62 6 18 -1 19 -109 19 -71 0 -117 -4 -121 -11z"/>
<path d="M18146 8363 c-6 -20 -236 -1061 -236 -1068 0 -3 9 -5 20 -5 12 0 22
8 25 23 3 12 50 227 105 477 55 250 107 482 114 514 8 33 13 64 10 68 -9 14
-33 8 -38 -9z"/>
<path d="M17604 8336 c-46 -20 -97 -87 -124 -163 -22 -59 -25 -85 -25 -193 0
-109 3 -131 23 -175 57 -124 142 -153 238 -80 40 31 41 26 13 -75 -48 -175
-133 -298 -222 -322 -56 -15 -56 -34 1 -31 131 6 276 187 332 418 28 113 31
287 7 388 -30 120 -84 204 -152 233 -42 17 -51 17 -91 0z m78 -56 c57 -44 95
-209 86 -369 -6 -102 -15 -123 -62 -145 -48 -22 -73 -20 -101 10 -41 44 -57
108 -62 244 -6 148 5 200 52 247 38 38 53 40 87 13z"/>
<path d="M18384 8336 c-46 -20 -97 -87 -124 -163 -22 -59 -25 -85 -25 -193 0
-109 3 -131 23 -175 57 -124 142 -153 238 -80 40 31 41 26 13 -75 -48 -175
-133 -298 -222 -322 -56 -15 -56 -34 1 -31 131 6 276 187 332 418 28 113 31
287 7 388 -30 120 -84 204 -152 233 -42 17 -51 17 -91 0z m78 -56 c57 -44 95
-209 86 -369 -6 -102 -15 -123 -62 -145 -48 -22 -73 -20 -101 10 -41 44 -57
108 -62 244 -6 148 5 200 52 247 38 38 53 40 87 13z"/>
<path d="M12246 8363 c-6 -20 -236 -1061 -236 -1068 0 -3 9 -5 20 -5 12 0 22
8 25 23 3 12 50 227 105 477 55 250 107 482 114 514 8 33 13 64 10 68 -9 14
-33 8 -38 -9z"/>
<path d="M11694 8331 c-72 -33 -114 -119 -114 -235 1 -69 27 -145 78 -218 18
-26 32 -50 32 -53 0 -4 -16 -30 -36 -57 -79 -107 -103 -221 -68 -325 32 -96
87 -143 169 -143 85 0 152 59 181 157 34 118 5 237 -89 357 l-46 59 43 48 c61
68 88 131 89 204 0 102 -57 194 -133 215 -48 13 -59 12 -106 -9z m123 -53 c36
-40 46 -71 46 -143 0 -74 -26 -151 -70 -204 l-20 -24 -46 59 c-26 32 -54 79
-62 103 -29 86 -13 180 36 215 35 24 91 21 116 -6z m-47 -545 c71 -93 110
-177 110 -234 0 -92 -49 -159 -115 -159 -87 0 -142 133 -115 280 12 68 57 170
75 170 1 0 22 -26 45 -57z"/>
<path d="M12485 8319 c-6 -8 -125 -377 -125 -384 0 -1 21 -5 47 -9 138 -19
238 -156 238 -326 0 -62 -5 -86 -28 -132 -45 -92 -117 -119 -174 -66 -64 59
-103 55 -103 -11 0 -111 154 -126 254 -24 133 135 154 392 46 556 -36 53 -107
108 -162 126 -21 7 -38 16 -38 20 0 4 9 35 21 69 l21 61 101 3 101 3 13 44 c7
24 15 52 18 62 6 18 -1 19 -109 19 -71 0 -117 -4 -121 -11z"/>
<path d="M21106 6583 c-3 -10 -42 -182 -86 -383 -67 -304 -118 -535 -145 -657
-4 -18 -1 -23 14 -23 11 0 22 8 25 18 3 9 55 241 116 515 60 274 113 509 116
523 5 19 2 24 -14 24 -11 0 -23 -8 -26 -17z"/>
<path d="M20550 6551 c-77 -40 -130 -161 -138 -311 -12 -251 107 -396 249
-300 24 16 45 25 47 20 7 -18 -39 -164 -74 -235 -45 -92 -99 -149 -164 -172
-58 -20 -64 -33 -17 -33 92 0 175 61 253 186 144 231 160 596 34 780 -56 81
-120 103 -190 65z m105 -65 c51 -54 69 -134 70 -303 0 -136 -1 -142 -24 -167
-14 -15 -42 -31 -63 -38 -35 -10 -41 -9 -62 11 -14 13 -35 46 -48 74 -21 47
-23 66 -23 202 0 136 2 154 22 192 39 72 79 81 128 29z"/>
<path d="M21334 6556 c-93 -41 -141 -211 -96 -341 10 -27 36 -77 59 -110 l41
-60 -30 -35 c-89 -105 -120 -242 -79 -351 38 -100 112 -149 205 -134 117 20
190 210 139 361 -18 55 -30 76 -85 150 -21 28 -38 54 -38 59 0 4 17 28 39 54
73 88 99 170 81 255 -27 127 -134 196 -236 152z m133 -63 c52 -64 50 -195 -3
-294 -42 -76 -46 -76 -92 -17 -65 86 -76 115 -77 195 0 57 4 77 21 100 44 59
110 66 151 16z m-65 -525 c19 -24 52 -72 73 -107 32 -51 40 -75 43 -125 5 -75
-21 -137 -68 -161 -39 -20 -62 -19 -94 6 -57 45 -85 150 -66 258 11 65 54 171
70 171 4 0 23 -19 42 -42z"/>
<path d="M15706 6583 c-3 -10 -42 -182 -86 -383 -67 -304 -118 -535 -145 -657
-4 -18 -1 -23 14 -23 11 0 22 8 25 18 3 9 55 241 116 515 60 274 113 509 116
523 5 19 2 24 -14 24 -11 0 -23 -8 -26 -17z"/>
<path d="M14670 6514 c-82 -61 -104 -91 -50 -71 60 23 60 22 60 -438 0 -386
-1 -413 -18 -428 -10 -10 -28 -17 -40 -17 -12 0 -22 -4 -22 -10 0 -6 49 -10
126 -10 117 0 153 10 85 23 -15 3 -32 14 -37 24 -5 10 -10 235 -12 501 -2 265
-6 482 -10 482 -4 -1 -41 -26 -82 -56z"/>
<path d="M15293 6544 c-104 -50 -207 -205 -254 -379 -30 -110 -32 -332 -6
-420 25 -81 75 -172 106 -195 45 -31 94 -35 143 -11 49 24 79 63 116 153 23
55 27 77 27 178 0 137 -18 201 -74 261 -34 35 -43 39 -88 39 -40 0 -59 -6 -91
-30 -36 -26 -42 -27 -42 -12 0 39 43 171 78 237 47 88 97 139 161 162 28 10
50 22 48 28 -7 20 -72 15 -124 -11z m-26 -456 c50 -55 73 -143 73 -282 0 -115
-19 -185 -61 -220 -39 -33 -51 -33 -89 2 -48 42 -71 124 -77 274 -7 164 -2
188 45 222 45 32 82 33 109 4z"/>
<path d="M15930 6551 c-77 -40 -130 -161 -138 -311 -12 -251 107 -396 249
-300 24 16 45 25 47 20 7 -18 -39 -164 -74 -235 -45 -92 -99 -149 -164 -172
-58 -20 -64 -33 -17 -33 92 0 175 61 253 186 144 231 160 596 34 780 -56 81
-120 103 -190 65z m105 -65 c51 -54 69 -134 70 -303 0 -136 -1 -142 -24 -167
-14 -15 -42 -31 -63 -38 -35 -10 -41 -9 -62 11 -14 13 -35 46 -48 74 -21 47
-23 66 -23 202 0 136 2 154 22 192 39 72 79 81 128 29z"/>
<path d="M18145 4838 c-3 -13 -57 -255 -120 -538 -109 -493 -120 -561 -82
-520 8 8 64 245 126 525 62 281 115 520 118 533 4 17 1 22 -16 22 -13 0 -23
-8 -26 -22z"/>
<path d="M17608 4772 c-43 -31 -77 -63 -78 -69 0 -16 3 -16 36 -1 53 24 54 16
54 -438 0 -450 1 -444 -57 -444 -14 0 -23 -5 -21 -12 3 -8 40 -12 121 -12 116
0 151 10 91 26 -18 4 -36 16 -40 26 -5 9 -10 234 -12 500 -2 265 -6 482 -10
482 -4 0 -42 -26 -84 -58z"/>
<path d="M18388 4772 c-43 -31 -77 -63 -78 -69 0 -16 3 -16 36 -1 53 24 54 16
54 -438 0 -450 1 -444 -57 -444 -14 0 -23 -5 -21 -12 3 -8 40 -12 121 -12 116
0 151 10 91 26 -18 4 -36 16 -40 26 -5 9 -10 234 -12 500 -2 265 -6 482 -10
482 -4 0 -42 -26 -84 -58z"/>
<path d="M32787 13108 c-65 -293 -117 -536 -117 -540 0 -5 9 -8 19 -8 16 0 22
11 31 53 6 28 59 271 118 540 105 469 108 487 87 487 -20 0 -28 -33 -138 -532z"/>
<path d="M33112 13277 c-128 -279 -152 -340 -152 -380 l0 -47 140 0 140 0 0
-135 0 -135 40 0 40 0 0 135 0 135 45 0 45 0 0 49 0 50 -42 3 -43 3 -3 328 -2
327 -28 0 c-26 0 -33 -14 -180 -333z m124 -314 c-6 -14 -211 -19 -219 -5 -3 4
45 117 107 251 l111 243 3 -238 c1 -131 0 -244 -2 -251z"/>
<path d="M32265 13590 c-9 -14 -56 -232 -52 -237 3 -3 15 13 26 35 37 73 58
82 187 82 63 0 114 -3 114 -7 0 -5 -43 -204 -95 -443 -52 -239 -95 -441 -95
-447 0 -7 11 -13 25 -13 17 0 26 7 30 23 39 166 215 993 213 999 -3 9 -348 17
-353 8z"/>
<path d="M5775 3402 c-103 -50 -155 -176 -155 -380 0 -182 51 -307 144 -351
23 -12 60 -21 81 -21 52 0 120 34 152 76 99 131 112 447 23 587 -57 91 -162
128 -245 89z m131 -78 c68 -32 106 -135 106 -282 0 -143 -31 -247 -88 -291
-35 -28 -105 -28 -149 -1 -82 51 -120 283 -71 443 36 121 116 172 202 131z"/>
<path d="M26125 3401 c-85 -38 -138 -136 -158 -293 -22 -174 25 -360 107 -423
68 -51 169 -42 228 21 38 40 48 42 48 10 0 -39 10 -54 31 -49 18 5 19 16 19
199 l0 194 -110 0 -110 0 0 -35 0 -35 81 0 82 0 -6 -53 c-8 -84 -28 -138 -64
-174 -29 -28 -40 -33 -83 -33 -99 0 -147 78 -157 257 -11 200 42 334 139 349
66 11 117 -32 143 -118 11 -38 16 -43 44 -46 36 -4 37 0 15 79 -19 69 -64 125
-118 150 -51 23 -80 23 -131 0z"/>
<path d="M5270 3033 l0 -368 155 3 155 3 0 34 0 35 -120 0 -120 0 -2 328 -3
327 -32 3 -33 3 0 -368z"/>
<path d="M6125 3378 c3 -13 30 -174 61 -358 30 -184 57 -340 59 -346 1 -5 18
-8 37 -6 l34 4 33 181 c49 276 74 408 76 405 2 -2 26 -131 55 -288 28 -157 53
-290 55 -296 1 -5 18 -8 37 -6 l34 4 58 346 c31 191 60 355 62 365 4 14 -1 17
-30 17 -43 0 -35 29 -81 -295 -20 -137 -40 -258 -43 -268 -5 -11 -27 88 -56
250 -26 147 -50 278 -53 291 -4 17 -12 22 -38 22 -39 0 -29 34 -91 -314 -33
-186 -50 -261 -55 -245 -5 13 -24 134 -44 269 -46 317 -38 290 -80 290 -32 0
-35 -2 -30 -22z"/>
<path d="M6799 3396 c-2 -2 -3 -168 -1 -368 l2 -363 175 3 175 3 0 34 0 35
-145 0 -145 0 0 140 0 140 130 0 130 0 0 35 0 35 -130 0 -130 0 0 115 0 114
143 3 142 3 0 35 0 35 -171 3 c-93 1 -172 0 -175 -2z"/>
<path d="M7240 3032 l0 -369 30 5 30 4 2 157 3 156 79 3 c92 3 130 -9 145 -46
5 -15 13 -81 16 -147 4 -66 9 -122 11 -124 3 -4 58 -5 80 -2 4 1 1 8 -6 17 -9
9 -16 64 -20 149 -6 99 -12 141 -24 160 -9 14 -21 25 -26 25 -5 0 5 23 23 52
29 47 32 58 32 132 0 90 -17 132 -68 170 -25 19 -45 21 -168 24 l-139 4 0
-370z m275 271 c37 -36 47 -125 21 -187 -18 -44 -55 -58 -152 -54 l-79 3 -3
128 -3 127 100 0 c79 0 103 -3 116 -17z"/>
<path d="M8370 3396 c0 -5 -137 -669 -145 -703 -5 -19 -1 -23 20 -23 17 0 26
7 30 23 3 12 34 166 70 342 36 176 68 330 70 343 5 18 1 22 -20 22 -14 0 -25
-2 -25 -4z"/>
<path d="M25310 3035 l0 -365 35 0 35 0 0 175 0 176 123 -3 122 -3 3 -176 2
-175 30 4 30 4 0 365 0 364 -31 -3 -31 -3 -1 -150 -2 -150 -122 -3 -123 -3 0
156 0 155 -35 0 -35 0 0 -365z"/>
<path d="M25807 3393 c-8 -7 -10 -717 -2 -725 3 -2 18 -3 35 0 l30 4 0 364 0
364 -28 0 c-16 0 -32 -3 -35 -7z"/>
<path d="M26500 3035 l0 -365 35 0 35 0 0 175 0 176 123 -3 122 -3 3 -176 2
-175 30 4 30 4 0 365 0 364 -31 -3 -31 -3 -1 -150 -2 -150 -122 -3 -123 -3 0
156 0 155 -35 0 -35 0 0 -365z"/>
<path d="M26989 3396 c-2 -2 -3 -168 -1 -368 l2 -363 175 3 175 3 0 34 0 35
-145 0 -145 0 0 140 0 140 130 0 130 0 0 35 0 35 -130 0 -130 0 0 115 0 114
143 3 142 3 0 35 0 35 -171 3 c-93 1 -172 0 -175 -2z"/>
<path d="M27430 3032 l0 -369 30 5 30 4 2 157 3 156 79 3 c92 3 130 -9 145
-46 5 -15 13 -81 16 -147 4 -66 9 -122 11 -124 3 -4 58 -5 80 -2 4 1 1 8 -6
17 -9 9 -16 64 -20 149 -6 99 -12 141 -24 160 -9 14 -21 25 -26 25 -5 0 5 23
23 52 29 47 32 58 32 132 0 90 -17 132 -68 170 -25 19 -45 21 -168 24 l-139 4
0 -370z m275 271 c37 -36 47 -125 21 -187 -18 -44 -55 -58 -152 -54 l-79 3 -3
128 -3 127 100 0 c79 0 103 -3 116 -17z"/>
<path d="M28560 3396 c0 -5 -137 -669 -145 -703 -5 -19 -1 -23 20 -23 17 0 26
7 30 23 3 12 34 166 70 342 36 176 68 330 70 343 5 18 1 22 -20 22 -14 0 -25
-2 -25 -4z"/>
<path d="M7947 3346 c-37 -37 -57 -95 -60 -171 -2 -48 -1 -50 26 -53 24 -3 27
0 27 26 0 15 7 51 15 79 35 119 141 107 167 -18 18 -86 -5 -134 -105 -229 -85
-80 -118 -134 -136 -218 -21 -99 -33 -92 149 -92 l160 0 0 35 0 35 -125 0
c-106 0 -125 2 -125 15 0 36 44 97 119 165 101 91 131 146 131 240 0 86 -23
152 -66 190 -30 25 -43 30 -89 30 -48 0 -58 -4 -88 -34z"/>
<path d="M28137 3346 c-37 -37 -57 -95 -60 -171 -2 -48 -1 -50 26 -53 24 -3
27 0 27 26 0 15 7 51 15 79 35 119 141 107 167 -18 18 -86 -5 -134 -105 -229
-85 -80 -118 -134 -136 -218 -21 -99 -33 -92 149 -92 l160 0 0 35 0 35 -125 0
c-106 0 -125 2 -125 15 0 36 44 97 119 165 101 91 131 146 131 240 0 86 -23
152 -66 190 -30 25 -43 30 -89 30 -48 0 -58 -4 -88 -34z"/>
<path d="M8586 3355 c-3 -9 -6 -25 -6 -34 0 -30 -36 -67 -79 -80 -36 -10 -41
-15 -41 -41 0 -30 1 -30 55 -30 l55 0 0 -248 c0 -137 2 -251 5 -254 3 -2 18
-3 35 0 l30 4 -2 347 c-3 344 -3 346 -24 349 -13 2 -24 -4 -28 -13z"/>
<path d="M28776 3355 c-3 -9 -6 -25 -6 -34 0 -30 -36 -67 -79 -80 -36 -10 -41
-15 -41 -41 0 -30 1 -30 55 -30 l55 0 0 -248 c0 -137 2 -251 5 -254 3 -2 18
-3 35 0 l30 4 -2 347 c-3 344 -3 346 -24 349 -13 2 -24 -4 -28 -13z"/>
</g>
</svg>
